<svg width="8" height="14" viewBox="0 0 8 14" fill="none" xmlns="http://www.w3.org/2000/svg">
<path d="M1.78523e-05 12.1457L1.78523e-05 1.12965C-0.00120112 0.933764 0.0600292 0.741975 0.175902 0.578736C0.291775 0.415497 0.457039 0.288204 0.650627 0.213087C0.844215 0.13797 1.05735 0.118431 1.26287 0.156962C1.46839 0.195494 1.65697 0.290349 1.80457 0.429435L7.69313 5.94241C7.88968 6.12719 8 6.37715 8 6.6377C8 6.89824 7.88968 7.1482 7.69313 7.33298L1.80457 12.846C1.65697 12.985 1.46839 13.0799 1.26287 13.1184C1.05735 13.157 0.844215 13.1374 0.650627 13.0623C0.457039 12.9872 0.291775 12.8599 0.175902 12.6967C0.0600292 12.5334 -0.00120112 12.3416 1.78523e-05 12.1457Z" fill="#ED1C24"/>
</svg>
